# xmcd
#
# Track frame offsets: 
#        150
#        9050
#        17374
#        27133
#        37458
#        45641
#        56767
#        65947
#        79081
#        93057
#        104820
#        120946
#        130344
#        187955
#        197180
#
# Disc length: 2746 seconds
#
# Revision: 0
# Processed by: cddbd v1.5.2PL0 Copyright (c) Steve Scherf et al.
# Submitted via: ExactAudioCopy v1.0b3
#
DISCID=c40ab80f
DTITLE=Darrel Higham with the Kelly Four - Darrel Higham with the Kell
DTITLE=y Four
DYEAR=1992
DGENRE=Rock and Roll
TTITLE0=Unknown Artist - C'mon Everybody
TTITLE1=Unknown Artist - Twenty Flight Rock
TTITLE2=Unknown Artist - My Way
TTITLE3=Unknown Artist - Hallelujah I Love Her So
TTITLE4=Unknown Artist - Little Angel
TTITLE5=Unknown Artist - Jeanie  Jeanie  Jeanie 
TTITLE6=Unknown Artist - Somethin' Else
TTITLE7=Unknown Artist - Lawdy Miss Clawdy
TTITLE8=Unknown Artist - Milk Cow Blues
TTITLE9=Unknown Artist - Pink Pegged Slacks
TTITLE10=Unknown Artist - What Am I Living For?
TTITLE11=Unknown Artist - Summertime Blues
TTITLE12=Unknown Artist - Interview
TTITLE13=Unknown Artist - Hallelujah I Love Her So - Live
TTITLE14=Unknown Artist - Summertime Blues - As Above
EXTD=
EXTT0=
EXTT1=
EXTT2=
EXTT3=
EXTT4=
EXTT5=
EXTT6=
EXTT7=
EXTT8=
EXTT9=
EXTT10=
EXTT11=
EXTT12=
EXTT13=
EXTT14=
PLAYORDER=
